<svg width="21" height="21" viewBox="0 0 21 21" fill="none" xmlns="http://www.w3.org/2000/svg">
<path d="M10.5 13.6299L7.40338 10.5341L8.02287 9.90413L10.0625 11.9437V4.375H10.9375V11.9437L12.9762 9.905L13.5966 10.5341L10.5 13.6299ZM5.789 16.625C5.38592 16.625 5.04962 16.4903 4.78012 16.2208C4.51062 15.9513 4.37558 15.6147 4.375 15.211V13.0909H5.25V15.211C5.25 15.3458 5.306 15.4694 5.418 15.582C5.53 15.6946 5.65337 15.7506 5.78812 15.75H15.2119C15.346 15.75 15.4694 15.694 15.582 15.582C15.6946 15.47 15.7506 15.3463 15.75 15.211V13.0909H16.625V15.211C16.625 15.6141 16.4903 15.9504 16.2208 16.2199C15.9513 16.4894 15.6147 16.6244 15.211 16.625H5.789Z" fill="white"/>
</svg>
