<svg width="15" height="15" viewBox="0 0 15 15" fill="none" xmlns="http://www.w3.org/2000/svg">
<path d="M3.125 11.875H4.01563L10.125 5.76563L9.23437 4.875L3.125 10.9844V11.875ZM1.875 13.125V10.4688L10.125 2.23438C10.25 2.11979 10.3881 2.03125 10.5394 1.96875C10.6906 1.90625 10.8494 1.875 11.0156 1.875C11.1819 1.875 11.3433 1.90625 11.5 1.96875C11.6567 2.03125 11.7921 2.125 11.9062 2.25L12.7656 3.125C12.8906 3.23958 12.9819 3.375 13.0394 3.53125C13.0969 3.6875 13.1254 3.84375 13.125 4C13.125 4.16667 13.0965 4.32563 13.0394 4.47688C12.9823 4.62813 12.891 4.76604 12.7656 4.89062L4.53125 13.125H1.875ZM9.67188 5.32812L9.23437 4.875L10.125 5.76563L9.67188 5.32812Z" fill="white"/>
</svg>
