<svg width="24" height="24" viewBox="0 0 24 24" fill="none" xmlns="http://www.w3.org/2000/svg">
<path d="M11.5006 18C15.5006 18 18.9606 15.78 20.7406 12.5C18.9606 9.22 15.5006 7 11.5006 7C7.50062 7 4.04062 9.22 2.26063 12.5C4.04062 15.78 7.50062 18 11.5006 18ZM11.5006 6C16.0606 6 20.0006 8.65 21.8606 12.5C20.0006 16.35 16.0606 19 11.5006 19C6.94062 19 3.00063 16.35 1.14062 12.5C3.00063 8.65 6.94062 6 11.5006 6ZM11.5006 8C14.0006 8 16.0006 10 16.0006 12.5C16.0006 15 14.0006 17 11.5006 17C9.00062 17 7.00063 15 7.00063 12.5C7.00063 10 9.00062 8 11.5006 8ZM11.5006 9C10.5724 9 9.68213 9.36875 9.02575 10.0251C8.36937 10.6815 8.00063 11.5717 8.00063 12.5C8.00063 13.4283 8.36937 14.3185 9.02575 14.9749C9.68213 15.6313 10.5724 16 11.5006 16C12.4289 16 13.3191 15.6313 13.9755 14.9749C14.6319 14.3185 15.0006 13.4283 15.0006 12.5C15.0006 11.5717 14.6319 10.6815 13.9755 10.0251C13.3191 9.36875 12.4289 9 11.5006 9Z" fill="white"/>
</svg>
