<svg width="22" height="22" viewBox="0 0 22 22" fill="none" xmlns="http://www.w3.org/2000/svg">
<path d="M18.3327 6.80474V16.8532C18.3327 17.2749 18.1915 17.6272 17.9092 17.9102C17.6268 18.1931 17.2742 18.3343 16.8513 18.3337H5.14735C4.72507 18.3337 4.37277 18.1925 4.09043 17.9102C3.8081 17.6278 3.66663 17.2752 3.66602 16.8523V5.14833C3.66602 4.72605 3.80749 4.37374 4.09043 4.09141C4.37338 3.80908 4.72568 3.6676 5.14735 3.66699H15.1949L18.3327 6.80474ZM17.416 7.19616L14.8035 4.58366H5.14735C4.98235 4.58366 4.84699 4.63652 4.74127 4.74224C4.63554 4.84796 4.58268 4.98333 4.58268 5.14833V16.8532C4.58268 17.0176 4.63554 17.1527 4.74127 17.2584C4.84699 17.3641 4.98235 17.417 5.14735 17.417H16.8523C17.0167 17.417 17.1517 17.3641 17.2574 17.2584C17.3632 17.1527 17.416 17.0173 17.416 16.8523V7.19616ZM10.9993 15.1602C11.5047 15.1602 11.9368 14.9811 12.2955 14.623C12.6542 14.2649 12.8333 13.8328 12.8327 13.3268C12.8321 12.8208 12.6527 12.3891 12.2946 12.0316C11.9365 11.6741 11.5047 11.495 10.9993 11.4944C10.494 11.4938 10.0622 11.6729 9.7041 12.0316C9.34599 12.3903 9.16663 12.822 9.16602 13.3268C9.1654 13.8316 9.34477 14.2637 9.7041 14.623C10.0634 14.9823 10.4952 15.1614 10.9993 15.1602ZM6.20518 8.95616H13.0087V6.20616H6.20518V8.95616ZM4.58268 7.19616V17.417V4.58366V7.19616Z" fill="white"/>
</svg>
