<svg width="20" height="20" viewBox="0 0 20 20" fill="none" xmlns="http://www.w3.org/2000/svg">
<path fill-rule="evenodd" clip-rule="evenodd" d="M15.9988 3.19961H3.19883C2.98665 3.19961 2.78317 3.2839 2.63314 3.43392C2.48311 3.58395 2.39883 3.78744 2.39883 3.99961V15.1996C2.39883 15.4118 2.48311 15.6153 2.63314 15.7653C2.78317 15.9153 2.98665 15.9996 3.19883 15.9996H15.9988C16.211 15.9996 16.4145 15.9153 16.5645 15.7653C16.7145 15.6153 16.7988 15.4118 16.7988 15.1996V3.99961C16.7988 3.78744 16.7145 3.58395 16.5645 3.43392C16.4145 3.2839 16.211 3.19961 15.9988 3.19961ZM3.19883 1.59961C2.56231 1.59961 1.95186 1.85247 1.50177 2.30255C1.05168 2.75264 0.798828 3.36309 0.798828 3.99961V15.1996C0.798828 15.8361 1.05168 16.4466 1.50177 16.8967C1.95186 17.3468 2.56231 17.5996 3.19883 17.5996H15.9988C16.6353 17.5996 17.2458 17.3468 17.6959 16.8967C18.146 16.4466 18.3988 15.8361 18.3988 15.1996V3.99961C18.3988 3.36309 18.146 2.75264 17.6959 2.30255C17.2458 1.85247 16.6353 1.59961 15.9988 1.59961H3.19883ZM4.79883 5.59961H6.39883V7.19961H4.79883V5.59961ZM8.79883 5.59961C8.58666 5.59961 8.38317 5.6839 8.23314 5.83392C8.08311 5.98395 7.99883 6.18744 7.99883 6.39961C7.99883 6.61178 8.08311 6.81527 8.23314 6.96529C8.38317 7.11532 8.58666 7.19961 8.79883 7.19961H13.5988C13.811 7.19961 14.0145 7.11532 14.1645 6.96529C14.3145 6.81527 14.3988 6.61178 14.3988 6.39961C14.3988 6.18744 14.3145 5.98395 14.1645 5.83392C14.0145 5.6839 13.811 5.59961 13.5988 5.59961H8.79883ZM6.39883 8.79961H4.79883V10.3996H6.39883V8.79961ZM7.99883 9.59961C7.99883 9.38744 8.08311 9.18395 8.23314 9.03392C8.38317 8.8839 8.58666 8.79961 8.79883 8.79961H13.5988C13.811 8.79961 14.0145 8.8839 14.1645 9.03392C14.3145 9.18395 14.3988 9.38744 14.3988 9.59961C14.3988 9.81178 14.3145 10.0153 14.1645 10.1653C14.0145 10.3153 13.811 10.3996 13.5988 10.3996H8.79883C8.58666 10.3996 8.38317 10.3153 8.23314 10.1653C8.08311 10.0153 7.99883 9.81178 7.99883 9.59961ZM6.39883 11.9996H4.79883V13.5996H6.39883V11.9996ZM7.99883 12.7996C7.99883 12.5874 8.08311 12.384 8.23314 12.2339C8.38317 12.0839 8.58666 11.9996 8.79883 11.9996H13.5988C13.811 11.9996 14.0145 12.0839 14.1645 12.2339C14.3145 12.384 14.3988 12.5874 14.3988 12.7996C14.3988 13.0118 14.3145 13.2153 14.1645 13.3653C14.0145 13.5153 13.811 13.5996 13.5988 13.5996H8.79883C8.58666 13.5996 8.38317 13.5153 8.23314 13.3653C8.08311 13.2153 7.99883 13.0118 7.99883 12.7996Z" fill="white"/>
</svg>
