<svg width="21" height="21" viewBox="0 0 21 21" fill="none" xmlns="http://www.w3.org/2000/svg">
<path d="M17.0625 7.875H11.8125V2.625H3.9375V18.375H17.0625V7.875ZM16.5191 6.5625L13.125 3.16838V6.5625H16.5191ZM3.28125 1.3125H13.125L18.375 6.5625V19.0312C18.375 19.2053 18.3059 19.3722 18.1828 19.4953C18.0597 19.6184 17.8928 19.6875 17.7188 19.6875H3.28125C3.1072 19.6875 2.94028 19.6184 2.81721 19.4953C2.69414 19.3722 2.625 19.2053 2.625 19.0312V1.96875C2.625 1.7947 2.69414 1.62778 2.81721 1.50471C2.94028 1.38164 3.1072 1.3125 3.28125 1.3125ZM6.5625 10.5H14.4375V11.8125H6.5625V10.5ZM6.5625 6.5625H9.84375V7.875H6.5625V6.5625ZM6.5625 14.4375H14.4375V15.75H6.5625V14.4375Z" fill="white"/>
</svg>
